Coordinates
version=1
nRows=16
nColumns=42
inDegrees=yes

Units are S.I. units (second, meters, Newtons, ...)
If the header above contains a line with 'inDegrees', this indicates whether rotational values are in degrees (yes) or radians (no).

endheader
time	pelvis_tilt	pelvis_list	pelvis_rotation	pelvis_tx	pelvis_ty	pelvis_tz	hip_flexion_r	hip_adduction_r	hip_rotation_r	knee_angle_r	knee_adduction_r	knee_angle_r_beta	ankle_angle_r	subtalar_angle_r	mtp_angle_r	hip_flexion_l	hip_adduction_l	hip_rotation_l	knee_angle_l	knee_adduction_l	knee_angle_l_beta	ankle_angle_l	subtalar_angle_l	mtp_angle_l	lumbar_extension	lumbar_bending	lumbar_rotation	arm_flex_r	arm_add_r	arm_rot_r	elbow_flex_r	pro_sup_r	wrist_flex_r	wrist_dev_r	arm_flex_l	arm_add_l	arm_rot_l	elbow_flex_l	pro_sup_l	wrist_flex_l	wrist_dev_l
      0.73000000	      2.01937143	     -0.99073020	     -3.46548232	     -1.40311039	      0.95751600	      0.34230534	    -15.71506976	      0.51799498	     -2.85496584	      2.53850444	      4.86068383	      0.04430526	     16.80848277	     14.18396811	     -7.78964631	     19.37556103	     -3.79442590	    -16.68988112	      6.64146453	      0.54831523	      0.11591542	      3.35131307	     16.22936370	     -7.78964631	     -8.92184920	      2.28527076	      4.50486564	      5.79791847	    -18.47897534	     10.46467420	     38.84995725	     90.00000001	      0.00000000	      0.00000000	    -14.33539936	    -12.33783330	      9.09159155	     30.26986024	     90.00000001	      0.00000000	      0.00000000
      0.74000000	      1.74766923	     -1.23000047	     -3.51621382	     -1.39351107	      0.95570328	      0.34256083	    -15.99977845	      0.84502553	     -2.64828743	      2.66391012	      4.69240713	      0.04649400	     17.06151880	     14.14150900	     -7.78724652	     19.66157884	     -3.97824636	    -16.73407530	      5.52815586	      0.68665165	      0.09648452	      3.23553128	     17.17253464	     -7.78724652	     -8.68091934	      2.36504512	      4.61372440	      6.00053369	    -18.44242837	     10.65689334	     38.73566483	     90.00000001	      0.00000000	      0.00000000	    -14.45926474	    -12.34029941	      9.01871177	     30.20137618	     90.00000001	      0.00000000	      0.00000000
      0.75000000	      1.62037725	     -1.43053927	     -3.64037269	     -1.38379178	      0.95414328	      0.34261138	    -16.40146272	      1.02767875	     -2.44225663	      2.88414973	      4.63111902	      0.05033791	     17.24412186	     13.96071822	     -7.78284844	     19.80259161	     -4.07777900	    -16.95668250	      4.78506848	      0.64609260	      0.08351520	      3.12111145	     18.28104760	     -7.78284844	     -8.60887694	      2.40741119	      4.75097945	      6.21595790	    -18.50156936	     11.13342414	     38.59298780	     90.00000001	      0.00000000	      0.00000000	    -14.54277600	    -12.27655757	      8.80720627	     30.11329022	     90.00000001	      0.00000000	      0.00000000
      0.76000000	      1.48277026	     -1.54622486	     -3.66479785	     -1.37391908	      0.95260704	      0.34262523	    -16.79988306	      1.11178552	     -2.44177535	      3.09816345	      4.62034508	      0.05407315	     17.27879594	     13.92695577	     -7.78184223	     20.08893877	     -4.10728108	    -17.05152764	      4.70238750	      0.63149948	      0.08207214	      3.12825021	     18.33833488	     -7.78184223	     -8.51139846	      2.33445999	      4.82395004	      6.26318096	    -18.43336001	     11.21999901	     38.60418998	     90.00000001	      0.00000000	      0.00000000	    -14.58697720	    -12.31885723	      8.76927712	     30.08367132	     90.00000001	      0.00000000	      0.00000000
      0.77000000	      1.34399398	     -1.63372768	     -3.77621350	     -1.36374425	      0.95119559	      0.34257674	    -17.18141370	      1.12939391	     -2.38431037	      3.37301985	      4.58859769	      0.05887030	     17.28903098	     13.91252316	     -7.78091378	     20.26293159	     -4.11382294	    -16.97325194	      4.79909884	      0.59120835	      0.08376008	      3.08164303	     18.38978815	     -7.78091378	     -8.37958925	      2.24656144	      4.93772585	      6.27030150	    -18.37502787	     11.29941483	     38.58981128	     90.00000001	      0.00000000	      0.00000000	    -14.66069725	    -12.33172638	      8.74217749	     30.05230764	     90.00000001	      0.00000000	      0.00000000
      0.78000000	      1.21734709	     -1.70763686	     -3.94849655	     -1.35329397	      0.94993969	      0.34258716	    -17.57326000	      1.10661161	     -2.26891475	      3.67323284	      4.54445997	      0.06411001	     17.29523950	     13.91664117	     -7.77994634	     20.32251022	     -4.10199812	    -16.80528254	      5.02852235	      0.48757402	      0.08776427	      2.97432299	     18.43705481	     -7.77994634	     -8.24164639	      2.12063921	      5.08835049	      6.21011631	    -18.28898883	     11.41548804	     38.52325310	     90.00000001	      0.00000000	      0.00000000	    -14.73513419	    -12.34472680	      8.71079069	     29.99331873	     90.00000001	      0.00000000	      0.00000000
      0.79000000	      1.58391540	     -1.51627973	     -4.42569623	     -1.34291185	      0.94949296	      0.34252651	    -18.47926352	      0.61718730	     -1.68442165	      3.90114287	      4.53625679	      0.06808779	     17.51786348	     14.06014707	     -7.77619935	     19.84322465	     -3.82179613	    -17.31445813	      5.53295544	      0.20594872	      0.09656829	      2.26972623	     18.41390331	     -7.77619935	     -8.66877171	      1.64804700	      5.45253044	      6.48818161	    -18.31072217	     12.37032180	     37.97019775	     90.00000001	      0.00000000	      0.00000000	    -14.45801723	    -12.23019544	      8.47060750	     29.37810084	     90.00000001	      0.00000000	      0.00000000
      0.80000000	      1.88625008	     -1.12148537	     -4.85249882	     -1.33183739	      0.94907062	      0.34221960	    -19.30763278	     -0.18699701	     -1.37375555	      4.19169416	      4.70578906	      0.07315886	     17.32868689	     14.09757830	     -7.76852624	     19.26313985	     -3.29047642	    -17.53526794	      5.94121312	     -0.01957182	      0.10369373	      1.76605832	     18.24923631	     -7.76852624	     -8.93573329	      0.97083688	      5.76598087	      6.33695361	    -18.42799073	     13.21214598	     38.01619100	     90.00000001	      0.00000000	      0.00000000	    -14.40383251	    -12.14469310	      7.89814173	     29.20228247	     90.00000001	      0.00000000	      0.00000000
      0.81000000	      1.90960112	     -1.02407870	     -5.09004991	     -1.32110981	      0.94861800	      0.34199398	    -19.73052033	     -0.51104163	     -1.15041352	      4.68562290	      4.72289465	      0.08177955	     17.08536119	     14.13391477	     -7.76558871	     19.10312956	     -3.07092082	    -17.38765740	      6.62261835	     -0.28161493	      0.11558650	      1.02679408	     17.90552096	     -7.76558871	     -8.95595302	      0.62986330	      5.93085428	      6.17749863	    -18.31010653	     13.35673730	     37.88220922	     90.00000001	      0.00000000	      0.00000000	    -14.28232592	    -12.13070819	      7.84017555	     28.99598083	     90.00000001	      0.00000000	      0.00000000
      0.82000000	      2.21502606	     -0.43604734	     -5.53246700	     -1.30988648	      0.94879406	      0.34150614	    -20.37083882	     -1.58589878	     -0.98256279	      5.27582000	      4.95750988	      0.09208043	     16.88724001	     14.25405201	     -7.75486510	     18.27688998	     -2.24721331	    -17.09926308	      6.69011005	     -0.50932985	      0.11676445	     -0.21946395	     16.61299830	     -7.75486510	     -9.19145542	     -0.26574750	      6.23347189	      5.94799927	    -18.18987276	     13.54627945	     37.71738152	     90.00000001	      0.00000000	      0.00000000	    -14.07789467	    -12.09522681	      7.55337910	     28.60521442	     90.00000001	      0.00000000	      0.00000000
      0.83000000	      2.22082868	     -0.25254730	     -5.70780088	     -1.29901009	      0.94898591	      0.34109080	    -20.58896375	     -1.99788125	     -0.86411072	      6.07932259	      4.98381817	      0.10610420	     16.32013339	     14.17247104	     -7.75131087	     18.02650184	     -1.95903002	    -16.94824473	      7.25313147	     -0.68087468	      0.12659103	     -1.24784774	     16.07042220	     -7.75131087	     -9.18253662	     -0.69229722	      6.31693400	      5.68198377	    -18.01678099	     13.58290108	     37.50891232	     90.00000001	      0.00000000	      0.00000000	    -13.86628952	    -12.10975102	      7.58688841	     28.31305124	     90.00000001	      0.00000000	      0.00000000
      0.84000000	      2.38054610	      0.41060998	     -5.92738122	     -1.28787661	      0.94974413	      0.34035414	    -20.76727295	     -3.07023298	     -1.18649812	      7.22851799	      5.18945367	      0.12616144	     16.00352056	     14.62426335	     -7.72818420	     17.05390690	     -0.93033708	    -15.34509088	      6.74257992	     -0.77030199	      0.11768022	     -2.80386846	     13.19533147	     -7.72818420	     -9.27607788	     -1.64851171	      6.39054166	      5.34527141	    -17.71249582	     13.30637146	     37.24451276	     90.00000001	      0.00000000	      0.00000000	    -13.57401655	    -12.14086794	      7.52390402	     27.96088242	     90.00000001	      0.00000000	      0.00000000
      0.85000000	      2.31644612	      0.69336693	     -6.06690352	     -1.27688574	      0.95060614	      0.33981794	    -20.64606063	     -3.59727648	     -1.10983244	      8.47335204	      5.27108035	      0.14788789	     15.14435406	     14.27233991	     -7.72401823	     16.76820680	     -0.59421492	    -15.22934470	      7.17932705	     -0.81891592	      0.12530290	     -3.45905145	     12.84834536	     -7.72401823	     -9.17287457	     -2.17299626	      6.41727389	      4.96464835	    -17.49081905	     13.29467487	     37.00162475	     90.00000001	      0.00000000	      0.00000000	    -13.28848766	    -12.16230072	      7.61354289	     27.63644008	     90.00000001	      0.00000000	      0.00000000
      0.86000000	      2.25839066	      0.98676836	     -6.13771945	     -1.26577095	      0.95184958	      0.33912490	    -20.40182762	     -4.15720723	     -1.11534609	      9.94851270	      5.42299268	      0.17363430	     14.09235527	     13.88929378	     -7.72030061	     16.37909969	     -0.21335146	    -14.97713520	      7.47809583	     -0.84694668	      0.13051739	     -3.85905003	     12.42597262	     -7.72030061	     -9.06543355	     -2.68326150	      6.36772144	      4.53380922	    -17.23756691	     13.19908087	     36.72236941	     90.00000001	      0.00000000	      0.00000000	    -12.98102949	    -12.20147317	      7.69633918	     27.33627067	     90.00000001	      0.00000000	      0.00000000
      0.87000000	      2.15515600	      1.34958642	     -6.14084848	     -1.25460593	      0.95338733	      0.33831767	    -19.92972828	     -4.78994584	     -1.24031669	     11.72905709	      5.59729543	      0.20471066	     12.94789701	     13.51570075	     -7.71571945	     15.92502011	      0.25451282	    -14.51642464	      7.61194388	     -0.79997411	      0.13285348	     -4.12151400	     11.84801247	     -7.71571945	     -8.90486565	     -3.25602811	      6.23796811	      4.04419087	    -16.92601460	     12.98458993	     36.40537348	     90.00000001	      0.00000000	      0.00000000	    -12.63778452	    -12.25781528	      7.79044668	     27.00771077	     90.00000001	      0.00000000	      0.00000000
      0.88000000	      2.08744035	      1.53609942	     -6.06276032	     -1.24343576	      0.95525365	      0.33736459	    -19.41636376	     -5.24850367	     -1.19382233	     13.58809073	      5.84518494	      0.23715692	     11.39444574	     13.16102755	     -7.71282039	     15.40156973	      0.51153582	    -14.07372299	      7.80673344	     -0.66012129	      0.13625320	     -3.98819703	     11.62487263	     -7.71282039	     -8.79986894	     -3.60523452	      6.01020885	      3.56605282	    -16.67440328	     12.87935660	     36.10972457	     90.00000001	      0.00000000	      0.00000000	    -12.32475659	    -12.26463111	      7.87239740	     26.84280763	     90.00000001	      0.00000000	      0.00000000
